# xmcd CD database file
#
# Track frame offsets:
#	150
#	19650
#	40407
#	67422
#	93082
#	110372
#	130327
#	149302
#	165235
#	186387
#
# Disc length: 2800 seconds
#
# Revision: 0
# Processed by: cddbd v1.5.1PL0 Copyright (c) Steve Scherf et al.
# Submitted via: CDex 1.50
#
DISCID=890aee0a
DTITLE=Various Artist - Utopia-理想の時-
DYEAR=1900
DGENRE=Easy Listening
TTITLE0=ウィンター・アイランド
TTITLE1=ユー・アー・ソー・カインド
TTITLE2=インサイド・アウトサイド
TTITLE3=グラデュエーション
TTITLE4=イルミネーション
TTITLE5=ファミリー
TTITLE6=二重人格
TTITLE7=フリー・レディー
TTITLE8=小さな人魚
TTITLE9=リトル・ガール
EXTD=
EXTT0=
EXTT1=
EXTT2=
EXTT3=
EXTT4=
EXTT5=
EXTT6=
EXTT7=
EXTT8=
EXTT9=
PLAYORDER=
